<svg version="1.1" xmlns="http://www.w3.org/2000/svg" xmlns:xlink="http://www.w3.org/1999/xlink" width="1200.000000pt" height="1200.000000pt" viewBox="0,0,256,256"><g fill="#b97641" fill-rule="nonzero" stroke="none" stroke-width="1" stroke-linecap="butt" stroke-linejoin="miter" stroke-miterlimit="10" stroke-dasharray="" stroke-dashoffset="0" font-family="none" font-weight="none" font-size="none" text-anchor="none" style="mix-blend-mode: normal"><g transform="translate(9.12292,9.15171) scale(0.21333,0.21333)"><g transform="translate(0,1200) scale(0.1,-0.1)"><path d="M2212,10410c-72,-17 -109,-84 -98,-174l7,-53l-49,5c-81,7 -132,-32 -162,-125c-24,-76 6,-169 77,-238c49,-47 178,-109 272,-130c95,-21 162,-49 194,-83c14,-15 44,-62 66,-105c54,-108 67,-189 53,-332c-24,-228 -25,-253 -12,-307c7,-29 25,-78 41,-109c28,-56 78,-124 86,-116c2,2 -11,46 -29,98c-27,80 -32,108 -31,184c0,77 5,101 32,170c63,155 72,187 82,293c17,185 -18,459 -81,627c-48,129 -77,186 -134,261c-87,116 -195,162 -314,134z"></path><path d="M3108,9660c-47,-14 -134,-79 -173,-128c-56,-72 -111,-195 -145,-325c-37,-146 -41,-291 -10,-430c21,-97 134,-367 201,-480c59,-101 128,-208 153,-236c119,-134 213,-210 265,-211c7,0 -10,25 -38,56c-49,53 -111,136 -111,148c0,3 -24,55 -54,115c-99,202 -99,369 1,552c33,62 153,176 248,237c151,97 212,169 240,283c15,61 15,70 0,124c-18,62 -75,134 -127,161c-66,34 -216,39 -290,9c-14,-6 -18,-2 -18,17c0,50 -22,90 -56,104c-37,15 -47,16 -86,4z"></path><path d="M2149,8985c-97,-51 -209,-183 -209,-247c0,-27 -17,-22 -34,10c-35,66 -104,107 -165,96c-158,-28 -251,-217 -202,-412c26,-106 84,-216 166,-318c161,-203 338,-327 605,-426c176,-65 275,-85 600,-123c69,-8 161,-19 205,-24c44,-6 150,-17 236,-25c161,-15 214,-29 284,-76c62,-40 65,-42 65,-32c0,20 -84,92 -133,116c-56,26 -135,46 -207,52c-238,22 -274,31 -417,102c-160,79 -322,212 -364,298c-51,107 -61,171 -68,479c-9,319 -14,352 -74,442c-17,26 -54,63 -81,81c-62,41 -136,44 -207,7z"></path><path d="M6120,8859c-25,-5 -77,-25 -117,-44c-79,-39 -163,-121 -184,-180c-13,-35 -13,-35 -75,-35c-34,0 -128,7 -210,16c-182,20 -802,23 -994,5c-333,-31 -615,-104 -855,-221c-211,-103 -302,-201 -293,-318c3,-29 11,-59 19,-66c15,-14 149,-31 1124,-136c642,-70 2673,-292 2875,-315c74,-9 457,-51 850,-95c393,-44 751,-84 795,-89c97,-11 119,-1 136,61c30,114 -38,234 -216,377c-126,101 -343,227 -525,303c-320,135 -807,252 -1350,324c-68,9 -130,18 -136,21c-7,2 -17,25 -23,50c-16,63 -42,110 -90,165c-56,64 -121,104 -213,133c-140,44 -403,66 -518,44zM5098,8524c25,-17 29,-51 8,-79c-13,-17 -35,-20 -237,-28c-224,-8 -422,-34 -599,-77c-285,-69 -355,-98 -442,-186c-55,-56 -98,-70 -126,-42c-63,63 128,238 308,282c36,9 76,21 90,27c30,13 159,42 340,76c94,17 192,27 320,32c304,13 313,12 338,-5zM5391,8491c35,-35 36,-57 7,-88c-29,-31 -72,-30 -103,2c-30,29 -32,68 -5,95c29,29 66,25 101,-9z"></path><path d="M4255,7240c-533,-3 -971,-6 -972,-8c-2,-1 -14,-20 -28,-41c-24,-39 -25,-39 -62,-29c-61,17 -191,5 -242,-21c-69,-36 -135,-104 -167,-174c-26,-56 -29,-72 -28,-167c0,-146 34,-243 172,-488c120,-214 177,-302 259,-398l57,-68l8,-165c9,-202 44,-624 64,-781c30,-235 109,-501 196,-660c248,-455 613,-719 1228,-890c68,-19 135,-23 758,-42l684,-21l686,21c771,24 712,17 997,113c632,214 1040,671 1164,1304c39,196 71,513 92,905l13,223l49,56c76,87 145,191 250,376c157,279 192,380 185,542c-3,81 -8,100 -38,159c-66,129 -179,191 -329,181c-42,-2 -83,-8 -92,-11c-13,-6 -23,3 -40,34c-13,22 -32,43 -44,45c-32,7 -3757,11 -4820,5zM3163,6876c68,-28 68,-27 65,-287l-3,-234l-57,100c-133,234 -168,364 -112,419c19,20 64,20 107,2zM9326,6865c22,-33 15,-128 -15,-205c-26,-70 -145,-283 -160,-288c-15,-5 -16,430 -1,459c15,27 79,58 122,59c29,0 41,-6 54,-25zM5732,6174c26,-9 75,-34 110,-56c63,-40 241,-212 311,-298l36,-45l18,25c46,65 164,189 243,255c97,80 169,120 245,134c305,57 443,-395 247,-811c-70,-150 -128,-227 -333,-448c-97,-105 -205,-227 -346,-392c-63,-74 -93,-82 -122,-35c-11,18 -34,46 -52,62c-17,17 -65,71 -106,120c-41,50 -141,161 -221,249c-189,203 -251,286 -317,421c-77,157 -100,248 -100,410c0,147 13,205 67,294c75,124 176,160 320,115zM3581,5967c84,-64 1,-216 -91,-167c-28,15 -46,82 -31,117c21,51 86,78 122,50zM3585,5508c14,-6 25,-14 26,-17c0,-3 2,-82 3,-176c3,-156 18,-281 45,-385c6,-19 22,-93 36,-165c53,-257 86,-356 166,-490c50,-84 207,-255 233,-255c9,0 30,-13 48,-29c61,-53 233,-158 312,-191c44,-17 88,-37 98,-44c48,-30 22,-96 -38,-96c-75,0 -302,123 -499,271c-90,67 -185,155 -185,170c0,4 -20,36 -44,71c-89,128 -164,326 -196,518c-7,41 -19,93 -27,114c-22,63 -64,341 -70,462c-7,140 1,199 32,230c28,28 26,28 60,12z"></path><path d="M4322,3008c-233,-320 -382,-528 -382,-537c0,-7 12,-16 26,-21c16,-6 820,-10 2224,-10c2162,0 2251,1 2250,29c0,7 -381,534 -411,569l-19,22h-1825h-1824z"></path></g></g></g></svg>